<svg width="924" height="212" viewBox="0 0 924 212" fill="none" xmlns="http://www.w3.org/2000/svg">
	<g clip-path="url(#clip0_1119_8)">
		<path d="M76.608 98.6761V192H24.5128V28.3636H74.0511V58.4062H75.8622C79.4844 48.392 85.6634 40.544 94.3991 34.8622C103.135 29.1094 113.54 26.233 125.614 26.233C137.119 26.233 147.098 28.8253 155.55 34.0099C164.072 39.1236 170.678 46.2969 175.365 55.5298C180.124 64.6918 182.467 75.4162 182.396 87.7031V192H130.301V97.9304C130.372 88.8395 128.064 81.7372 123.376 76.6236C118.76 71.5099 112.332 68.9531 104.094 68.9531C98.625 68.9531 93.7955 70.1605 89.6051 72.5753C85.4858 74.919 82.2898 78.2926 80.017 82.696C77.8153 87.0994 76.679 92.4261 76.608 98.6761ZM291.141 195.089C274.025 195.089 259.252 191.716 246.823 184.969C234.465 178.151 224.948 168.456 218.272 155.885C211.667 143.243 208.364 128.222 208.364 110.821C208.364 93.9176 211.702 79.1449 218.378 66.5028C225.054 53.7898 234.465 43.9176 246.61 36.8864C258.755 29.7841 273.066 26.233 289.543 26.233C301.191 26.233 311.844 28.044 321.503 31.6662C331.162 35.2883 339.507 40.6506 346.539 47.7528C353.57 54.8551 359.039 63.6264 362.945 74.0668C366.851 84.4361 368.804 96.3324 368.804 109.756V122.753H226.581V92.4972H320.331C320.26 86.9574 318.946 82.0213 316.39 77.6889C313.833 73.3565 310.317 69.983 305.843 67.5682C301.439 65.0824 296.361 63.8395 290.608 63.8395C284.784 63.8395 279.564 65.1534 274.948 67.7812C270.331 70.3381 266.674 73.8537 263.975 78.3281C261.276 82.7315 259.855 87.7386 259.713 93.3494V124.138C259.713 130.814 261.027 136.673 263.655 141.716C266.283 146.687 270.012 150.558 274.841 153.328C279.671 156.098 285.424 157.483 292.1 157.483C296.716 157.483 300.907 156.844 304.671 155.565C308.435 154.287 311.667 152.405 314.365 149.919C317.064 147.433 319.088 144.379 320.438 140.757L368.272 142.142C366.283 152.866 361.915 162.206 355.168 170.161C348.492 178.044 339.721 184.187 328.854 188.591C317.988 192.923 305.417 195.089 291.141 195.089ZM437.386 28.3636L464.339 82.2699L492.251 28.3636H544.772L499.069 110.182L546.477 192H494.381L464.339 137.668L435.042 192H382.201L429.715 110.182L384.545 28.3636H437.386ZM674.131 121.368V28.3636H726.12V192H676.475V161.531H674.77C671.148 171.545 664.969 179.5 656.233 185.395C647.569 191.219 637.093 194.131 624.806 194.131C613.655 194.131 603.854 191.574 595.402 186.46C586.951 181.347 580.381 174.209 575.694 165.047C571.006 155.814 568.627 145.018 568.556 132.661V28.3636H620.651V122.433C620.722 131.311 623.066 138.307 627.682 143.42C632.299 148.534 638.584 151.091 646.539 151.091C651.723 151.091 656.375 149.955 660.495 147.682C664.685 145.338 667.988 141.964 670.402 137.561C672.888 133.087 674.131 127.689 674.131 121.368ZM902.141 78.3281L854.307 79.6065C853.81 76.1974 852.46 73.179 850.259 70.5511C848.057 67.8523 845.18 65.7571 841.629 64.2656C838.149 62.7031 834.101 61.9219 829.484 61.9219C823.447 61.9219 818.298 63.1293 814.037 65.544C809.847 67.9588 807.787 71.2259 807.858 75.3452C807.787 78.5412 809.065 81.3111 811.693 83.6548C814.392 85.9986 819.186 87.8807 826.075 89.3011L857.609 95.267C873.945 98.392 886.089 103.577 894.044 110.821C902.07 118.065 906.118 127.653 906.189 139.585C906.118 150.807 902.78 160.572 896.175 168.882C889.641 177.192 880.692 183.655 869.328 188.271C857.964 192.817 844.967 195.089 830.337 195.089C806.97 195.089 788.54 190.295 775.045 180.707C761.622 171.048 753.952 158.122 752.034 141.929L803.49 140.651C804.626 146.616 807.574 151.162 812.332 154.287C817.091 157.412 823.163 158.974 830.55 158.974C837.226 158.974 842.659 157.732 846.849 155.246C851.04 152.76 853.17 149.457 853.241 145.338C853.17 141.645 851.537 138.697 848.341 136.496C845.145 134.223 840.138 132.447 833.32 131.169L804.768 125.736C788.362 122.753 776.146 117.249 768.121 109.223C760.095 101.126 756.118 90.8281 756.189 78.3281C756.118 67.3906 759.03 58.0511 764.925 50.3097C770.82 42.4972 779.2 36.5312 790.067 32.4119C800.933 28.2926 813.753 26.233 828.526 26.233C850.685 26.233 868.156 30.8849 880.94 40.1889C893.724 49.4219 900.791 62.1349 902.141 78.3281Z" fill="white" />
	</g>
	<defs>
		<clipPath id="clip0_1119_8">
			<rect width="924" height="212" fill="white" />
		</clipPath>
	</defs>
</svg>
