<svg width="64" height="64" viewBox="0 0 64 64" fill="none" xmlns="http://www.w3.org/2000/svg">
<g clip-path="url(#clip0_1134_12)">
<path d="M9.97329 13.5215L0.0799997 23.468L15.3333 38.7478L0 54.1343L9.86663 64.0008L25.2266 48.6144L40.4798 63.8942L50.3731 54.001L9.97329 13.5215Z" fill="#53B9FF"/>
<path d="M35.1199 38.7188L25.2266 48.612L40.4798 63.8918L50.3731 53.9985L35.1199 38.7188Z" fill="#119EFF"/>
<path d="M35.1199 38.7188L25.2266 48.612L29.0399 52.4252L35.1199 38.7188Z" fill="black" fill-opacity="0.2"/>
<path fill-rule="evenodd" clip-rule="evenodd" d="M48.6404 25.253L64.0004 9.86654L54.1071 0L38.7472 15.3331L23.4672 0.079999L13.6006 9.9732L54.0004 50.4527L63.8671 40.5328L48.6671 25.253H48.6404Z" fill="#53B9FF"/>
<path d="M28.8272 25.2531L38.7472 15.3332L23.4672 0.0800781L13.6006 9.97328L28.8272 25.2531Z" fill="#119EFF"/>
<path d="M28.8271 25.2534L38.7471 15.3335L34.9338 11.5469L28.8271 25.2534Z" fill="black" fill-opacity="0.2"/>
</g>
<defs>
<clipPath id="clip0_1134_12">
<rect width="64" height="64" fill="white"/>
</clipPath>
</defs>
</svg>
