<svg width="924" height="212" viewBox="0 0 924 212" fill="none" xmlns="http://www.w3.org/2000/svg">
<g clip-path="url(#clip0_1119_8)">
<path d="M76.608 98.6761V192H24.5128V28.3636H74.0511V58.4062H75.8622C79.4844 48.392 85.6634 40.544 94.3991 34.8622C103.135 29.1094 113.54 26.233 125.614 26.233C137.119 26.233 147.098 28.8253 155.55 34.0099C164.072 39.1236 170.678 46.2969 175.365 55.5298C180.124 64.6918 182.467 75.4162 182.396 87.7031V192H130.301V97.9304C130.372 88.8395 128.064 81.7372 123.376 76.6236C118.76 71.5099 112.332 68.9531 104.094 68.9531C98.625 68.9531 93.7955 70.1605 89.6051 72.5753C85.4858 74.919 82.2898 78.2926 80.017 82.696C77.8153 87.0994 76.679 92.4261 76.608 98.6761ZM291.141 195.089C274.025 195.089 259.252 191.716 246.823 184.969C234.465 178.151 224.948 168.456 218.272 155.885C211.667 143.243 208.364 128.222 208.364 110.821C208.364 93.9176 211.702 79.1449 218.378 66.5028C225.054 53.7898 234.465 43.9176 246.61 36.8864C258.755 29.7841 273.066 26.233 289.543 26.233C301.191 26.233 311.844 28.044 321.503 31.6662C331.162 35.2883 339.507 40.6506 346.539 47.7528C353.57 54.8551 359.039 63.6264 362.945 74.0668C366.851 84.4361 368.804 96.3324 368.804 109.756V122.753H226.581V92.4972H320.331C320.26 86.9574 318.946 82.0213 316.39 77.6889C313.833 73.3565 310.317 69.983 305.843 67.5682C301.439 65.0824 296.361 63.8395 290.608 63.8395C284.784 63.8395 279.564 65.1534 274.948 67.7812C270.331 70.3381 266.674 73.8537 263.975 78.3281C261.276 82.7315 259.855 87.7386 259.713 93.3494V124.138C259.713 130.814 261.027 136.673 263.655 141.716C266.283 146.687 270.012 150.558 274.841 153.328C279.671 156.098 285.424 157.483 292.1 157.483C296.716 157.483 300.907 156.844 304.671 155.565C308.435 154.287 311.667 152.405 314.365 149.919C317.064 147.433 319.088 144.379 320.438 140.757L368.272 142.142C366.283 152.866 361.915 162.206 355.168 170.161C348.492 178.044 339.721 184.187 328.854 188.591C317.988 192.923 305.417 195.089 291.141 195.089ZM694.346 121.368V28.3636H746.335V192H696.69V161.531H694.985C691.363 171.545 685.184 179.5 676.448 185.395C667.783 191.219 657.308 194.131 645.021 194.131C633.87 194.131 624.069 191.574 615.617 186.46C607.165 181.347 600.596 174.209 595.908 165.047C591.221 155.814 588.842 145.018 588.771 132.661V28.3636H640.866V122.433C640.937 131.311 643.281 138.307 647.897 143.42C652.513 148.534 658.799 151.091 666.754 151.091C671.938 151.091 676.59 149.955 680.71 147.682C684.9 145.338 688.202 141.964 690.617 137.561C693.103 133.087 694.346 127.689 694.346 121.368ZM922.355 78.3281L874.522 79.6065C874.025 76.1974 872.675 73.179 870.473 70.5511C868.272 67.8523 865.395 65.7571 861.844 64.2656C858.364 62.7031 854.316 61.9219 849.699 61.9219C843.662 61.9219 838.513 63.1293 834.252 65.544C830.061 67.9588 828.002 71.2259 828.073 75.3452C828.002 78.5412 829.28 81.3111 831.908 83.6548C834.607 85.9986 839.401 87.8807 846.29 89.3011L877.824 95.267C894.159 98.392 906.304 103.577 914.259 110.821C922.284 118.065 926.333 127.653 926.404 139.585C926.333 150.807 922.995 160.572 916.39 168.882C909.855 177.192 900.907 183.655 889.543 188.271C878.179 192.817 865.182 195.089 850.551 195.089C827.185 195.089 808.755 190.295 795.26 180.707C781.837 171.048 774.167 158.122 772.249 141.929L823.705 140.651C824.841 146.616 827.789 151.162 832.547 154.287C837.306 157.412 843.378 158.974 850.765 158.974C857.441 158.974 862.874 157.732 867.064 155.246C871.255 152.76 873.385 149.457 873.456 145.338C873.385 141.645 871.752 138.697 868.556 136.496C865.36 134.223 860.353 132.447 853.534 131.169L824.983 125.736C808.577 122.753 796.361 117.249 788.336 109.223C780.31 101.126 776.333 90.8281 776.404 78.3281C776.333 67.3906 779.245 58.0511 785.14 50.3097C791.034 42.4972 799.415 36.5312 810.282 32.4119C821.148 28.2926 833.968 26.233 848.74 26.233C870.9 26.233 888.371 30.8849 901.155 40.1889C913.939 49.4219 921.006 62.1349 922.355 78.3281Z" fill="white"/>
<path d="M440.969 13.0909L449.914 8.61877L447.15 3.0909H440.969V13.0909ZM472.415 75.9815L463.471 80.4537L472.259 98.0307L481.295 80.5796L472.415 75.9815ZM504.979 13.0909V3.0909H498.896L496.098 8.49286L504.979 13.0909ZM566.254 13.0909L574.984 17.9676L583.294 3.0909H566.254V13.0909ZM512.933 108.545L504.203 103.669L501.428 108.636L504.281 113.559L512.933 108.545ZM568.242 204V214H585.594L576.895 198.987L568.242 204ZM507.464 204L498.713 208.839L501.567 214H507.464V204ZM472.415 140.612L481.166 135.773L472.304 119.747L463.613 135.866L472.415 140.612ZM438.235 204V214H444.204L447.037 208.746L438.235 204ZM376.587 204L367.94 198.978L359.216 214H376.587V204ZM432.021 108.545L440.668 113.567L443.512 108.67L440.775 103.712L432.021 108.545ZM379.322 13.0909V3.0909H362.378L370.567 17.9241L379.322 13.0909ZM432.025 17.563L463.471 80.4537L481.359 71.5094L449.914 8.61877L432.025 17.563ZM481.295 80.5796L513.859 17.689L496.098 8.49286L463.535 71.3835L481.295 80.5796ZM504.979 23.0909H566.254V3.0909H504.979V23.0909ZM557.523 8.21422L504.203 103.669L521.664 113.422L574.984 17.9676L557.523 8.21422ZM504.281 113.559L559.59 209.013L576.895 198.987L521.586 103.532L504.281 113.559ZM568.242 194H507.464V214H568.242V194ZM516.216 199.161L481.166 135.773L463.664 145.451L498.713 208.839L516.216 199.161ZM463.613 135.866L429.433 199.254L447.037 208.746L481.217 145.358L463.613 135.866ZM438.235 194H376.587V214H438.235V194ZM385.235 209.022L440.668 113.567L423.373 103.524L367.94 198.978L385.235 209.022ZM440.775 103.712L388.076 8.25772L370.567 17.9241L423.266 113.379L440.775 103.712ZM379.322 23.0909H440.969V3.0909H379.322V23.0909Z" fill="white"/>
</g>
<defs>
<clipPath id="clip0_1119_8">
<rect width="924" height="212" fill="white"/>
</clipPath>
</defs>
</svg>
