<svg width="1143" height="315" viewBox="0 0 1143 315" fill="none" xmlns="http://www.w3.org/2000/svg">
<g clip-path="url(#clip0_1619_27)">
<path d="M143.608 149.676V243H91.5128V79.3636H141.051V109.406H142.862C146.484 99.392 152.663 91.544 161.399 85.8622C170.135 80.1094 180.54 77.233 192.614 77.233C204.119 77.233 214.098 79.8253 222.55 85.0099C231.072 90.1236 237.678 97.2969 242.365 106.53C247.124 115.692 249.467 126.416 249.396 138.703V243H197.301V148.93C197.372 139.839 195.064 132.737 190.376 127.624C185.76 122.51 179.332 119.953 171.094 119.953C165.625 119.953 160.795 121.161 156.605 123.575C152.486 125.919 149.29 129.293 147.017 133.696C144.815 138.099 143.679 143.426 143.608 149.676ZM358.141 246.089C341.025 246.089 326.252 242.716 313.823 235.969C301.465 229.151 291.948 219.456 285.272 206.885C278.667 194.243 275.364 179.222 275.364 161.821C275.364 144.918 278.702 130.145 285.378 117.503C292.054 104.79 301.465 94.9176 313.61 87.8864C325.755 80.7841 340.066 77.233 356.543 77.233C368.191 77.233 378.844 79.044 388.503 82.6662C398.162 86.2883 406.507 91.6506 413.539 98.7528C420.57 105.855 426.039 114.626 429.945 125.067C433.851 135.436 435.804 147.332 435.804 160.756V173.753H293.581V143.497H387.331C387.26 137.957 385.946 133.021 383.39 128.689C380.833 124.357 377.317 120.983 372.843 118.568C368.439 116.082 363.361 114.839 357.608 114.839C351.784 114.839 346.564 116.153 341.948 118.781C337.331 121.338 333.674 124.854 330.975 129.328C328.276 133.732 326.855 138.739 326.713 144.349V175.138C326.713 181.814 328.027 187.673 330.655 192.716C333.283 197.687 337.012 201.558 341.841 204.328C346.671 207.098 352.424 208.483 359.1 208.483C363.716 208.483 367.907 207.844 371.671 206.565C375.435 205.287 378.667 203.405 381.365 200.919C384.064 198.433 386.088 195.379 387.438 191.757L435.272 193.142C433.283 203.866 428.915 213.206 422.168 221.161C415.492 229.044 406.721 235.187 395.854 239.591C384.988 243.923 372.417 246.089 358.141 246.089ZM825.799 172.368V79.3636H877.788V243H828.143V212.531H826.438C822.816 222.545 816.637 230.5 807.901 236.395C799.237 242.219 788.761 245.131 776.474 245.131C765.323 245.131 755.522 242.574 747.07 237.46C738.619 232.347 732.049 225.209 727.362 216.047C722.674 206.814 720.295 196.018 720.224 183.661V79.3636H772.319V173.433C772.39 182.311 774.734 189.307 779.35 194.42C783.967 199.534 790.252 202.091 798.207 202.091C803.391 202.091 808.043 200.955 812.163 198.682C816.353 196.338 819.656 192.964 822.07 188.561C824.556 184.087 825.799 178.689 825.799 172.368ZM1053.81 129.328L1005.97 130.607C1005.48 127.197 1004.13 124.179 1001.93 121.551C999.725 118.852 996.848 116.757 993.297 115.266C989.817 113.703 985.769 112.922 981.152 112.922C975.115 112.922 969.966 114.129 965.705 116.544C961.515 118.959 959.455 122.226 959.526 126.345C959.455 129.541 960.733 132.311 963.361 134.655C966.06 136.999 970.854 138.881 977.743 140.301L1009.28 146.267C1025.61 149.392 1037.76 154.577 1045.71 161.821C1053.74 169.065 1057.79 178.653 1057.86 190.585C1057.79 201.807 1054.45 211.572 1047.84 219.882C1041.31 228.192 1032.36 234.655 1021 239.271C1009.63 243.817 996.635 246.089 982.005 246.089C958.638 246.089 940.208 241.295 926.713 231.707C913.29 222.048 905.62 209.122 903.702 192.929L955.158 191.651C956.294 197.616 959.242 202.162 964 205.287C968.759 208.412 974.831 209.974 982.218 209.974C988.894 209.974 994.327 208.732 998.517 206.246C1002.71 203.76 1004.84 200.457 1004.91 196.338C1004.84 192.645 1003.2 189.697 1000.01 187.496C996.813 185.223 991.806 183.447 984.988 182.169L956.436 176.736C940.03 173.753 927.814 168.249 919.789 160.223C911.763 152.126 907.786 141.828 907.857 129.328C907.786 118.391 910.698 109.051 916.593 101.31C922.488 93.4972 930.868 87.5312 941.735 83.4119C952.601 79.2926 965.421 77.233 980.194 77.233C1002.35 77.233 1019.82 81.8849 1032.61 91.1889C1045.39 100.422 1052.46 113.135 1053.81 129.328Z" fill="white"/>
<path d="M703 77.4635L622.878 157.635L702.426 237.381L650.837 289L440 78.0296L491.582 26.4024L571.288 106.015L651.388 26L703 77.4635ZM440 78.0296L491.582 26L702.426 237.381L650.837 289L571.288 209.4L491.582 289L440 237.381L519.555 157.635L440 78.0296Z" fill="white"/>
</g>
<defs>
<clipPath id="clip0_1619_27">
<rect width="1143" height="315" fill="white"/>
</clipPath>
</defs>
</svg>
